<?xml version="1.0" encoding="utf-8"?>
<!-- Generator: Adobe Illustrator 15.0.0, SVG Export Plug-In . SVG Version: 6.00 Build 0)  -->
<!DOCTYPE svg PUBLIC "-//W3C//DTD SVG 1.1//EN" "http://www.w3.org/Graphics/SVG/1.1/DTD/svg11.dtd" [
	<!ENTITY ns_flows "http://ns.adobe.com/Flows/1.0/">
	<!ENTITY ns_extend "http://ns.adobe.com/Extensibility/1.0/">
	<!ENTITY ns_ai "http://ns.adobe.com/AdobeIllustrator/10.0/">
	<!ENTITY ns_graphs "http://ns.adobe.com/Graphs/1.0/">
	<!ENTITY ns_vars "http://ns.adobe.com/Variables/1.0/">
	<!ENTITY ns_imrep "http://ns.adobe.com/ImageReplacement/1.0/">
	<!ENTITY ns_sfw "http://ns.adobe.com/SaveForWeb/1.0/">
	<!ENTITY ns_custom "http://ns.adobe.com/GenericCustomNamespace/1.0/">
	<!ENTITY ns_adobe_xpath "http://ns.adobe.com/XPath/1.0/">
]>
<svg version="1.1" id="Layer_3" xmlns:x="&ns_extend;" xmlns:i="&ns_ai;" xmlns:graph="&ns_graphs;"
	 xmlns="http://www.w3.org/2000/svg" xmlns:xlink="http://www.w3.org/1999/xlink" xmlns:a="http://ns.adobe.com/AdobeSVGViewerExtensions/3.0/"
	 x="0px" y="0px" width="106px" height="104px" viewBox="0 0 106 104" enable-background="new 0 0 106 104" xml:space="preserve">
<metadata>
	<sfw  xmlns="&ns_sfw;">
		<slices></slices>
		<sliceSourceBounds  width="61.015" height="67.85" y="15.061" x="22.518" bottomLeftOrigin="true"></sliceSourceBounds>
	</sfw>
</metadata>
<polyline fill="none" stroke="#FFFFFF" stroke-width="0.25" stroke-miterlimit="10" points="67.167,69.709 69.917,72.814 
	68.917,75.834 66.75,77.251 69.417,73.221 55.667,53.168 54.417,54.531 54.194,58.126 56.875,54.377 55.667,53.168 54.917,50.976 
	53.052,52.584 51.667,53.168 50.255,55.894 49.583,55.745 53.75,56.668 53.75,53.168 53.75,52 52.354,52 51.781,52 50.75,50.976 
	47.502,53.168 48.75,55.745 52.359,53.168 50.625,50.444 49.083,50.168 50,46.722 42.5,46.722 42.5,49.952 49.083,50.168 "/>
<polyline fill="none" stroke="#FFFFFF" stroke-width="0.25" stroke-miterlimit="10" points="22.641,50.553 26.884,50.785 
	26.475,50.785 29.059,40.97 27.225,39.303 28.142,33.761 30.809,32.053 36.725,34.886 38.934,32.053 42.642,31.386 38.725,35.72 
	42.225,31.386 43.559,31.386 41.725,35.72 42.892,34.636 47.975,34.636 46.892,36.053 42.496,34.895 44.309,32.053 51.975,22.886 
	52.871,25.43 56.912,26.762 55.729,27.136 47.975,32.467 47.975,30.97 48.391,27.136 50.475,28.19 48.537,26.553 51.141,22.886 
	56.31,21.47 61.725,23.386 63.391,28.053 63.506,30.97 64.078,36.47 55.521,32.49 62.933,28.19 63.391,29.053 61.309,34.886 
	64.078,33.887 59.703,30.97 60.475,34.48 58.225,36.47 55.225,32.053 56.31,21.47 48.785,30.136 47.559,32.636 54.83,32.053 
	57.154,34.895 55.337,32.564 50.433,34.886 49.475,32.636 51.391,32.345 56.216,22.386 56.216,21.928 58.6,22.886 58.712,23.397 
	61.809,23.803 61.725,23.386 55.225,32.053 52.559,35.72 48.391,33.553 47.975,33.553 43.559,32.49 44.309,32.053 49.475,32.636 
	51.391,32.345 55.225,32.053 60.141,43.024 61.809,41.928 64.078,36.47 63.391,38.309 58.433,35.399 58.225,36.47 60.141,38.309 
	61.809,41.928 58.299,38.912 58.016,38.309 52.559,35.72 53.809,37.736 54.225,37.736 47.975,33.553 48.391,34.262 50.433,37.736 
	46.892,36.053 45.767,35.999 53.184,40.118 54.225,38.309 50.433,37.736 40.141,44.303 38.225,37.22 38.225,36.303 37.809,27.553 
	37.475,27.053 37.017,40.848 37.246,41.303 39.183,43.22 38.809,43.803 34.579,38.803 36.309,40.848 34.579,48.303 33.475,41.605 
	35.809,44.575 38.225,44.303 38.809,44.303 39.183,44.303 24.141,58.803 34.059,55.969 34.934,64.012 32.85,65.637 36.309,69.345 
	35.809,69.888 37.141,67.969 37.809,65.303 37.141,64.637 34.059,58.803 33.559,58.678 36.309,69.345 28.808,68.803 29.225,68.803 
	33.475,69.888 35.809,69.304 23.725,59.387 24.141,60.219 28.475,67.969 26.567,61.719 33.141,58.678 32.558,65.303 29.767,60.199 
	31.162,59.387 32.616,64.637 25.725,52.137 29.225,48.053 30.809,44.303 36.309,27.053 36.309,26.553 30.809,32.053 33.141,35.428 
	30.141,32.636 30.141,38.22 30.141,38.803 30.141,45.719 30.809,45.386 30.141,52.553 23.104,53.279 22.641,50.553 24.141,59.387 
	33.475,57.969 37.809,51.551 38.809,50.553 39.183,46.053 38.809,45.386 34.934,55.297 31.35,51.854 30.809,52.553 37.141,26.553 
	38.934,32.053 42.892,37.736 42.642,37.303 47.975,46.553 49.059,51.551 46.059,53.887 39.725,53.887 38.934,52.053 40.225,53.887 
	45.309,51.801 45.725,51.551 46.059,46.956 38.934,52.053 44.309,44.745 38.725,44.745 40.725,41.303 37.2,35.313 38.725,35.72 
	49.059,51.551 49.953,55.887 51.141,54.887 54.225,49.504 54.225,46.274 54.225,45.509 55.448,41.928 55.006,42.476 53.184,43.705 
	51.975,43.024 53.892,41.303 54.604,42.748 55.891,43.636 55.006,43.024 53.308,44.385 52.683,43.705 52.559,46.414 53.184,49.504 
	49.475,51.551 48.785,49.504 52.559,49.504 49.953,45.706 51.975,43.024 42.496,34.895 42.892,34.636 53.892,41.303 54.248,40.42 
	60.975,44.745 65.808,45.136 62.475,46.274 66.308,46.553 65.808,44.745 66.308,40.42 67.37,41.928 67.85,42.582 67.725,46.956 
	67.016,45.891 65.609,43.705 62.35,40.118 66.308,40.42 65.684,40.118 64.141,38.309 65.808,37.014 66.642,37.303 68.392,41.247 
	69.725,45.706 69.725,46.274 69.725,49.504 68.808,52.969 68.392,54.887 68.808,58.053 66.642,58.762 69.392,58.406 73.308,63.145 
	73.875,61.637 74.141,62.084 71.142,57.031 69.725,54.887 69.725,55.387 69.059,66.32 69.392,66.969 69.328,65.672 73.308,63.145 
	70.434,55.219 68.6,53.928 69.725,47.959 66.642,47.889 61.725,50.302 60.975,49.053 62.475,46.274 60.975,44.745 60.141,43.024 
	55.891,39.47 54.225,38.309 44.309,32.49 41.725,35.72 42.892,42.104 38.725,44.745 41.725,47.803 39.725,49.303 38.934,49.053 
	38.725,51.551 36.725,53.887 37.829,55.887 37.2,58.053 39.725,60.303 55.891,63.053 57.611,61.115 54.604,59.178 52.328,54.887 
	51.975,54.553 61.309,50.528 62.475,50.528 66.642,50.528 66.642,47.889 61.725,46.274 61.309,45.891 55.891,43.636 54.225,45.136 
	53.308,44.385 53.892,46.956 52.559,46.414 47.975,46.553 48.391,46.553 49.059,51.551 38.934,52.053 40.809,54.553 49.953,55.887 
	53.184,74.47 53.809,73.638 56.31,70.415 55.891,69.888 58.6,73.304 58.6,75.179 60.475,75.888 60.475,73.638 61.809,64.053 
	63.391,59.803 62.475,58.762 61.809,59.178 60.475,61.115 60.475,62.469 62.933,64.053 64.078,60.719 64.391,60.303 64.391,69.888 
	62.475,64.652 61.725,64.652 62.475,73.304 64.078,70.282 64.141,69.429 64.725,71.138 64.912,71.595 66.308,74.595 66.308,75.179 
	67.725,80.179 68.808,84.679 69.059,85.388 69.725,88.804 58.433,88.804 56.267,86.97 55.891,86.554 58.016,84.132 57.611,84.132 
	57.245,81.804 56.31,77.651 59.922,77.429 56.953,76.804 55.058,77.423 51.1,79.888 51.975,81.804 55.287,81.804 57.245,81.804 
	59.183,82.804 63.506,87.095 64.184,84.679 64.725,78.095 65.364,78.095 59.183,82.804 55.891,86.554 53.766,86.554 54.475,82.866 
	55.287,81.804 55.891,76.804 52.328,82.804 52.328,86.97 45.725,87.72 45.027,88.054 35.975,88.054 36.725,88.054 47.975,82.866 
	48.391,82.866 48.537,87.345 52.328,86.554 45.725,80.478 50.964,72.366 55.891,71.595 56.642,75.179 55.448,75.888 59.703,76.304 
	60.141,78.554 58.6,81.804 58.225,82.179 59.922,77.429 59.703,76.804 65.609,78.501 62.475,73.304 60.475,75.888 53.184,74.47 
	53.892,68.887 55.058,63.053 54.604,59.178 55.891,58.406 55.448,58.791 58.016,61.115 60.475,61.115 61.809,63.053 55.058,63.053 
	55.448,63.637 57.683,66.355 57.245,66.969 57.611,69.657 58.225,69.888 61.809,64.053 61.809,63.637 54.604,68.387 58.016,70.47 
	61.142,69.888 59.183,73.304 58.6,73.304 58.433,70.47 60.975,68.844 64.725,61.637 67.016,64.652 67.016,64.053 71.642,68.887 
	72.308,69.261 75.975,72.772 76.516,69.657 74.141,62.084 78.892,69.261 76.308,73.304 77.975,75.386 78.475,76.804 76.308,75.179 
	75.975,72.772 81.507,72.772 81.642,72.366 69.059,66.32 66.642,58.762 64.725,55.887 64.141,57.26 60.975,56.469 57.683,58.053 
	52.328,54.887 49.953,55.887 47.975,61.637 46.892,61.928 43.892,64.053 43.892,64.652 42.767,68.387 42.767,68.844 38.963,75.888 
	47.975,69.657 37.2,87.345 53.184,74.47 47.559,61.637 42.496,59.803 41.517,60.303 42.006,60.719 43.892,64.053 53.184,74.47 
	55.058,76.304 51.1,79.888 51.537,79.888 45.725,80.478 47.975,70.282 47.235,70.872 40.635,77.423 40.225,77.679 35.975,88.054 
	38.963,76.304 38.963,75.888 42.309,78.96 58.433,88.804 63.506,87.095 64.078,87.138 69.142,88.804 69.725,88.804 65.609,78.501 
	"/>
<polygon fill="none" stroke="#FFFFFF" stroke-width="0.25" stroke-miterlimit="10" points="81.507,72.772 78.927,76.202 
	78.475,76.804 83.339,76.804 "/>
</svg>
